<svg width="23" height="22" viewBox="0 0 23 22" fill="none" xmlns="http://www.w3.org/2000/svg">
<g id="home" clip-path="url(#clip0_210_32)">
<path id="Subtract" fill-rule="evenodd" clip-rule="evenodd" d="M11.2816 0C10.9259 0 10.5848 0.141279 10.3332 0.392767L0.942817 9.78314C0.755265 9.97075 0.627548 10.2097 0.57581 10.4699C0.524072 10.7301 0.550638 10.9998 0.652148 11.2449C0.753658 11.49 0.925554 11.6995 1.14611 11.8469C1.36666 11.9943 1.62597 12.073 1.89124 12.073H3.23272V20.1219C3.23272 20.4777 3.37406 20.8189 3.62564 21.0705C3.87721 21.3221 4.21842 21.4634 4.57421 21.4634H7.25717H8.59862V17.1709C8.59862 15.6892 9.79981 14.488 11.2815 14.488C12.7633 14.488 13.9645 15.6892 13.9645 17.1709V21.4634H15.3061H17.989C18.3448 21.4634 18.686 21.3221 18.9376 21.0705C19.1892 20.8189 19.3305 20.4777 19.3305 20.1219V12.073H20.672C20.9373 12.073 21.1966 11.9943 21.4171 11.8469C21.6377 11.6995 21.8096 11.49 21.9111 11.2449C22.0126 10.9998 22.0392 10.7301 21.9874 10.4699C21.9357 10.2097 21.808 9.97075 21.6204 9.78314L12.23 0.392767C11.9785 0.141279 11.6373 0 11.2816 0Z" fill="#2D8CFF"/>
</g>
<defs>
<clipPath id="clip0_210_32">
<rect width="22" height="22" fill="white" transform="translate(0.75)"/>
</clipPath>
</defs>
</svg>
