<svg width="19" height="23" viewBox="0 0 19 23" fill="none" xmlns="http://www.w3.org/2000/svg">
<g id="Group">
<path id="Vector" d="M18.15 9.4V12.55C18.15 16.5096 18.15 18.4899 16.9194 19.7194C15.6899 20.95 13.7096 20.95 9.75 20.95C5.79045 20.95 3.81015 20.95 2.5806 19.7194C1.35 18.4899 1.35 16.5096 1.35 12.55V9.4C1.35 5.44045 1.35 3.46015 2.5806 2.2306C3.81015 1 5.79045 1 9.75 1C13.7096 1 15.6899 1 16.9194 2.2306C17.6061 2.91625 17.9095 3.835 18.0429 5.2" stroke="#8D99AE" stroke-width="1.2915" stroke-linecap="round"/>
<path id="Vector_2" d="M4.5001 20.95V22H5.5501V20.95M13.9501 20.95V22H15.0001V20.95" stroke="#8D99AE" stroke-width="1.2915" stroke-linejoin="round"/>
<path id="Vector_3" d="M1.3501 10.975H6.6001H10.8001H18.1501M4.5001 6.25V8.35" stroke="#8D99AE" stroke-width="1.2915" stroke-linecap="round"/>
</g>
</svg>
