<svg width="22" height="23" viewBox="0 0 22 23" fill="none" xmlns="http://www.w3.org/2000/svg">
<g id="solar:settings-linear" clip-path="url(#clip0_210_56)">
<g id="Group">
<path id="Vector" d="M11 14.5C12.6569 14.5 14 13.1569 14 11.5C14 9.84315 12.6569 8.5 11 8.5C9.34315 8.5 8 9.84315 8 11.5C8 13.1569 9.34315 14.5 11 14.5Z" stroke="#8D99AE" stroke-width="1.5"/>
<path id="Vector_2" d="M12.765 1.652C12.398 1.5 11.932 1.5 11 1.5C10.068 1.5 9.602 1.5 9.235 1.652C8.99218 1.75251 8.77155 1.8999 8.58572 2.08572C8.3999 2.27155 8.25251 2.49218 8.152 2.735C8.06 2.958 8.023 3.219 8.009 3.598C8.00277 3.87199 7.927 4.1399 7.78881 4.37657C7.65062 4.61324 7.45455 4.81091 7.219 4.951C6.9799 5.08504 6.71064 5.1561 6.43653 5.1575C6.16243 5.1589 5.89246 5.09059 5.652 4.959C5.316 4.781 5.073 4.683 4.832 4.651C4.30632 4.58187 3.7747 4.72431 3.354 5.047C3.04 5.29 2.806 5.693 2.34 6.5C1.874 7.307 1.64 7.71 1.589 8.105C1.55464 8.36545 1.57192 8.63012 1.63987 8.88389C1.70781 9.13767 1.82509 9.37556 1.985 9.584C2.133 9.776 2.34 9.937 2.661 10.139C3.134 10.436 3.438 10.942 3.438 11.5C3.438 12.058 3.134 12.564 2.661 12.86C2.34 13.063 2.132 13.224 1.985 13.416C1.82509 13.6244 1.70781 13.8623 1.63987 14.1161C1.57192 14.3699 1.55464 14.6345 1.589 14.895C1.641 15.289 1.874 15.693 2.339 16.5C2.806 17.307 3.039 17.71 3.354 17.953C3.56244 18.1129 3.80033 18.2302 4.05411 18.2981C4.30788 18.3661 4.57255 18.3834 4.833 18.349C5.073 18.317 5.316 18.219 5.652 18.041C5.89246 17.9094 6.16243 17.8411 6.43653 17.8425C6.71064 17.8439 6.9799 17.915 7.219 18.049C7.702 18.329 7.989 18.844 8.009 19.402C8.023 19.782 8.059 20.042 8.152 20.265C8.25251 20.5078 8.3999 20.7284 8.58572 20.9143C8.77155 21.1001 8.99218 21.2475 9.235 21.348C9.602 21.5 10.068 21.5 11 21.5C11.932 21.5 12.398 21.5 12.765 21.348C13.0078 21.2475 13.2284 21.1001 13.4143 20.9143C13.6001 20.7284 13.7475 20.5078 13.848 20.265C13.94 20.042 13.977 19.782 13.991 19.402C14.011 18.844 14.298 18.328 14.781 18.049C15.0201 17.915 15.2894 17.8439 15.5635 17.8425C15.8376 17.8411 16.1075 17.9094 16.348 18.041C16.684 18.219 16.927 18.317 17.167 18.349C17.4275 18.3834 17.6921 18.3661 17.9459 18.2981C18.1997 18.2302 18.4376 18.1129 18.646 17.953C18.961 17.711 19.194 17.307 19.66 16.5C20.126 15.693 20.36 15.29 20.411 14.895C20.4454 14.6345 20.4281 14.3699 20.3601 14.1161C20.2922 13.8623 20.1749 13.6244 20.015 13.416C19.867 13.224 19.66 13.063 19.339 12.861C19.1047 12.7186 18.9105 12.519 18.7746 12.2809C18.6387 12.0428 18.5655 11.7741 18.562 11.5C18.562 10.942 18.866 10.436 19.339 10.14C19.66 9.937 19.868 9.776 20.015 9.584C20.1749 9.37556 20.2922 9.13767 20.3601 8.88389C20.4281 8.63012 20.4454 8.36545 20.411 8.105C20.359 7.711 20.126 7.307 19.661 6.5C19.194 5.693 18.961 5.29 18.646 5.047C18.4376 4.88709 18.1997 4.76981 17.9459 4.70187C17.6921 4.63392 17.4275 4.61664 17.167 4.651C16.927 4.683 16.684 4.781 16.347 4.959C16.1067 5.09042 15.8369 5.15862 15.563 5.15722C15.2891 5.15582 15.02 5.08486 14.781 4.951C14.5455 4.81091 14.3494 4.61324 14.2112 4.37657C14.073 4.1399 13.9972 3.87199 13.991 3.598C13.977 3.218 13.941 2.958 13.848 2.735C13.7475 2.49218 13.6001 2.27155 13.4143 2.08572C13.2284 1.8999 13.0078 1.75251 12.765 1.652Z" stroke="#8D99AE" stroke-width="1.5"/>
</g>
</g>
<defs>
<clipPath id="clip0_210_56">
<rect width="21" height="23" fill="white" transform="translate(0.75)"/>
</clipPath>
</defs>
</svg>
