<svg width="25" height="24" viewBox="0 0 25 24" fill="none" xmlns="http://www.w3.org/2000/svg">
<path d="M10.5606 7.5683H15.6743M7.71974 7.5683C7.71974 7.719 7.65988 7.86351 7.55332 7.97007C7.44677 8.07662 7.30225 8.13649 7.15156 8.13649C7.00086 8.13649 6.85635 8.07662 6.74979 7.97007C6.64324 7.86351 6.58337 7.719 6.58337 7.5683C6.58337 7.41761 6.64324 7.27309 6.74979 7.16654C6.85635 7.05998 7.00086 7.00012 7.15156 7.00012C7.30225 7.00012 7.44677 7.05998 7.55332 7.16654C7.65988 7.27309 7.71974 7.41761 7.71974 7.5683Z" stroke="#8D99AE" stroke-width="1.13636" stroke-linecap="round"/>
<path d="M10.5606 12.1139H19.0834M7.71974 12.1139C7.71974 12.2646 7.65988 12.4091 7.55332 12.5157C7.44677 12.6222 7.30225 12.6821 7.15156 12.6821C7.00086 12.6821 6.85635 12.6222 6.74979 12.5157C6.64324 12.4091 6.58337 12.2646 6.58337 12.1139C6.58337 11.9632 6.64324 11.8187 6.74979 11.7121C6.85635 11.6056 7.00086 11.5457 7.15156 11.5457C7.30225 11.5457 7.44677 11.6056 7.55332 11.7121C7.65988 11.8187 7.71974 11.9632 7.71974 12.1139Z" stroke="#8D99AE" stroke-width="1.13636" stroke-linecap="round"/>
<path d="M10.5606 16.6593H19.0834M7.71974 16.6593C7.71974 16.81 7.65988 16.9545 7.55332 17.0611C7.44677 17.1677 7.30225 17.2275 7.15156 17.2275C7.00086 17.2275 6.85635 17.1677 6.74979 17.0611C6.64324 16.9545 6.58337 16.81 6.58337 16.6593C6.58337 16.5086 6.64324 16.3641 6.74979 16.2576C6.85635 16.151 7.00086 16.0912 7.15156 16.0912C7.30225 16.0912 7.44677 16.151 7.55332 16.2576C7.65988 16.3641 7.71974 16.5086 7.71974 16.6593Z" stroke="#8D99AE" stroke-width="1.13636" stroke-linecap="round"/>
<rect x="1" y="0.75" width="22.5" height="22.5" rx="7.75" stroke="#8D99AE" stroke-width="1.5"/>
</svg>
